# Blender v2.91.0 OBJ File: 'Map.blend'
# www.blender.org
mtllib BlockedZone.mtl
o Floor.006_Cube.089
v -116.594208 6.205185 99.559570
v -116.594208 0.075878 99.559570
v -75.812485 6.205185 -30.039848
v -75.812485 5.246963 -30.039848
v -76.963547 6.202154 -30.864559
v -76.963547 5.249993 -30.864559
v -152.249359 6.193713 74.295990
v -152.249359 0.067647 74.295990
v -76.782257 6.205185 99.593231
v -76.782257 0.048415 99.593231
v -74.964561 6.205185 -30.037148
v -74.964561 5.246963 -30.037148
vt 0.070400 0.535459
vt 0.070400 0.535576
vt 0.070985 0.535576
vt 0.070985 0.535459
vt 0.066191 0.535576
vt 0.066191 0.535576
vt 0.063279 0.535576
vt 0.063279 0.535576
vt 0.091554 0.535576
vt 0.091554 0.535576
vt 0.090620 0.535576
vt 0.090620 0.535459
vt 0.851859 0.014593
vt 0.830679 0.522606
vt 0.199590 0.522544
vt 0.039798 0.014586
vt 0.254094 0.534342
vt 0.185715 0.992810
vt 0.090265 0.993165
vt 0.233371 0.534426
vn 0.5824 0.0000 -0.8129
vn -0.5781 0.0000 0.8159
vn -0.0008 0.0000 1.0000
vn 0.0032 0.0000 -1.0000
vn 0.0000 1.0000 0.0000
vn -0.0003 1.0000 -0.0001
usemtl None
s off
f 6/1/1 5/2/1 3/3/1 4/4/1
f 2/5/2 1/6/2 7/7/2 8/8/2
f 10/9/3 9/10/3 1/6/3 2/5/3
f 4/4/4 3/3/4 11/11/4 12/12/4
f 9/13/5 11/14/5 3/15/5 1/16/5
f 5/17/6 7/18/6 1/19/6 3/20/6
