# Blender v2.91.0 OBJ File: 'Map.blend'
# www.blender.org
mtllib Wall.mtl
o Wall_Cube.102
v 6.190321 3.538366 0.379642
v 6.190321 3.855676 0.379642
v 6.190321 3.538366 -0.519833
v 6.190321 3.855676 -0.519833
v 7.301344 3.538366 0.379642
v 7.301344 3.855676 0.379642
v 7.301344 3.538366 -0.519833
v 7.301344 3.855676 -0.519833
v -6.913255 0.832003 0.408817
v -6.913255 1.149312 0.408817
v -6.913255 0.832003 -0.490665
v -6.913255 1.149312 -0.490665
v -6.073259 0.832003 0.408810
v -6.073259 1.149312 0.408810
v -6.073259 0.832003 -0.490665
v -6.073259 1.149312 -0.490665
v -7.339769 -0.386602 0.408825
v -7.339769 -0.069292 0.408825
v -7.339769 -0.386602 -0.490673
v -7.339769 -0.069292 -0.490673
v -6.275621 -0.386602 0.408817
v -6.275621 -0.069292 0.408817
v -6.275621 -0.386602 -0.490658
v -6.275621 -0.069292 -0.490658
v -5.839708 -1.480028 0.408810
v -5.839708 -1.162719 0.408810
v -5.839677 -1.480028 -0.490665
v -5.839677 -1.162719 -0.490665
v -4.519701 -1.480028 0.408825
v -4.519701 -1.162719 0.408825
v -4.519701 -1.480028 -0.490650
v -4.519701 -1.162719 -0.490650
v -6.204332 2.516312 0.408810
v -6.204332 2.833622 0.408810
v -6.204362 2.516312 -0.490665
v -6.204362 2.833622 -0.490665
v -4.884355 2.516312 0.408825
v -4.884355 2.833622 0.408825
v -4.884355 2.516312 -0.490650
v -4.884355 2.833622 -0.490650
v 5.622084 0.832003 0.391758
v 5.622084 1.149312 0.391758
v 5.622084 0.832003 -0.507725
v 5.622084 1.149312 -0.507725
v 6.462080 0.832003 0.391750
v 6.462080 1.149312 0.391750
v 6.462080 0.832003 -0.507725
v 6.462080 1.149312 -0.507725
v 6.172041 0.214746 0.391758
v 6.172041 0.532055 0.391758
v 6.172041 0.214746 -0.507717
v 6.172041 0.532055 -0.507717
v 7.492049 0.214746 0.391758
v 7.492049 0.532055 0.391758
v 7.492018 0.214746 -0.507717
v 7.492018 0.532055 -0.507717
v 4.692214 -1.480028 0.391766
v 4.692214 -1.162719 0.391766
v 4.692214 -1.480028 -0.507710
v 4.692214 -1.162719 -0.507710
v 6.012221 -1.480028 0.391766
v 6.012221 -1.162719 0.391766
v 6.012221 -1.480028 -0.507710
v 6.012221 -1.162719 -0.507710
v 4.534285 2.516312 0.391750
v 4.534285 2.833622 0.391750
v 4.534255 2.516312 -0.507725
v 4.534255 2.833622 -0.507725
v 5.854262 2.516312 0.391750
v 5.854262 2.833622 0.391750
v 5.854262 2.516312 -0.507725
v 5.854262 2.833622 -0.507725
v -2.449510 3.649057 0.408810
v -2.449510 3.966367 0.408810
v -2.449480 3.649057 -0.490650
v -2.449480 3.966367 -0.490650
v -1.789507 3.649057 0.408817
v -1.789507 3.966367 0.408817
v -1.789507 3.649057 -0.490658
v -1.789507 3.966367 -0.490658
v -7.760026 3.166627 -0.408512
v 7.771407 3.126922 -0.438511
v 7.771407 3.130860 0.322376
v -7.759996 3.170565 0.352383
v 7.771407 4.070371 0.322376
v -7.759996 4.070371 0.352383
v 7.771407 4.070371 -0.438511
v -7.760026 4.070371 -0.408512
v -7.782091 -2.077683 -0.379116
v 7.749342 -2.078265 -0.409122
v -7.771043 -1.880211 -0.393803
v -7.771043 -1.875528 0.367252
v -7.774431 -2.064207 0.503422
v -7.763414 -1.885233 0.488712
v 7.761122 -1.881892 0.334454
v 7.760390 -1.885649 -0.423809
v 7.759291 -2.098932 0.489544
v 7.770949 -1.876060 0.478596
v -7.782060 -2.072253 0.382130
v 7.779616 -2.091949 0.342762
v -7.782587 -2.090649 -0.548280
v 7.748847 -2.091231 -0.578286
v -7.771539 -1.893178 -0.562966
v 7.759894 -1.898615 -0.592973
v -0.606723 1.149980 0.408809
v -0.606723 1.467290 0.408809
v -0.606666 1.149980 -0.490651
v -0.606666 1.467290 -0.490651
v 0.636504 1.149980 0.408817
v 0.636504 1.467290 0.408817
v 0.636504 1.149980 -0.490658
v 0.636504 1.467290 -0.490658
v 1.933465 -0.201452 0.408809
v 1.933465 0.115857 0.408809
v 1.933491 -0.201452 -0.490651
v 1.933491 0.115857 -0.490651
v 2.493851 -0.201452 0.408817
v 2.493851 0.115857 0.408817
v 2.493851 -0.201452 -0.490658
v 2.493851 0.115857 -0.490658
v -2.671976 -0.019116 0.408809
v -2.671976 0.298193 0.408809
v -2.671929 -0.019116 -0.490651
v -2.671929 0.298193 -0.490651
v -1.652854 -0.019116 0.408817
v -1.652854 0.298193 0.408817
v -1.652854 -0.019116 -0.490658
v -1.652854 0.298193 -0.490658
v -0.892852 -0.769912 0.408809
v -0.892852 -0.452602 0.408809
v -0.892824 -0.769912 -0.490651
v -0.892824 -0.452602 -0.490651
v -0.278626 -0.769912 0.408817
v -0.278626 -0.452602 0.408817
v -0.278626 -0.769912 -0.490658
v -0.278626 -0.452602 -0.490658
v 2.489163 -0.630479 0.408809
v 2.489163 -0.313169 0.408809
v 2.489214 -0.630479 -0.490651
v 2.489214 -0.313169 -0.490651
v 3.589891 -0.630479 0.408817
v 3.589891 -0.313169 0.408817
v 3.589891 -0.630479 -0.490658
v 3.589891 -0.313169 -0.490658
v 1.502403 2.737376 0.408809
v 1.502403 3.054686 0.408809
v 1.502454 2.737376 -0.490651
v 1.502454 3.054686 -0.490651
v 2.603131 2.737376 0.408817
v 2.603131 3.054686 0.408817
v 2.603131 2.737376 -0.490658
v 2.603131 3.054686 -0.490658
vt 0.568521 0.495000
vt 0.571021 0.495000
vt 0.571021 0.497500
vt 0.568521 0.497500
vt 0.568521 0.500000
vt 0.571021 0.500000
vt 0.571021 0.502500
vt 0.568521 0.502500
vt 0.571021 0.505000
vt 0.568521 0.505000
vt 0.566021 0.500000
vt 0.566021 0.502500
vt 0.573521 0.500000
vt 0.573521 0.502500
vt 0.568521 0.495000
vt 0.571021 0.495000
vt 0.571021 0.497500
vt 0.568521 0.497500
vt 0.568521 0.500000
vt 0.571021 0.500000
vt 0.571021 0.502500
vt 0.568521 0.502500
vt 0.571021 0.505000
vt 0.568521 0.505000
vt 0.566021 0.500000
vt 0.566021 0.502500
vt 0.573521 0.500000
vt 0.573521 0.502500
vt 0.568521 0.495000
vt 0.571021 0.495000
vt 0.571021 0.497500
vt 0.568521 0.497500
vt 0.568521 0.500000
vt 0.571021 0.500000
vt 0.571021 0.502500
vt 0.568521 0.502500
vt 0.571021 0.505000
vt 0.568521 0.505000
vt 0.566021 0.500000
vt 0.566021 0.502500
vt 0.573521 0.500000
vt 0.573521 0.502500
vt 0.568521 0.495000
vt 0.571021 0.495000
vt 0.571021 0.497500
vt 0.568521 0.497500
vt 0.568521 0.500000
vt 0.571021 0.500000
vt 0.571021 0.502500
vt 0.568521 0.502500
vt 0.571021 0.505000
vt 0.568521 0.505000
vt 0.566021 0.500000
vt 0.566021 0.502500
vt 0.573521 0.500000
vt 0.573521 0.502500
vt 0.568521 0.495000
vt 0.571021 0.495000
vt 0.571021 0.497500
vt 0.568521 0.497500
vt 0.568521 0.500000
vt 0.571021 0.500000
vt 0.571021 0.502500
vt 0.568521 0.502500
vt 0.571021 0.505000
vt 0.568521 0.505000
vt 0.566021 0.500000
vt 0.566021 0.502500
vt 0.573521 0.500000
vt 0.573521 0.502500
vt 0.568521 0.495000
vt 0.571021 0.495000
vt 0.571021 0.497500
vt 0.568521 0.497500
vt 0.568521 0.500000
vt 0.571021 0.500000
vt 0.571021 0.502500
vt 0.568521 0.502500
vt 0.571021 0.505000
vt 0.568521 0.505000
vt 0.566021 0.500000
vt 0.566021 0.502500
vt 0.573521 0.500000
vt 0.573521 0.502500
vt 0.568521 0.495000
vt 0.571021 0.495000
vt 0.571021 0.497500
vt 0.568521 0.497500
vt 0.568521 0.500000
vt 0.571021 0.500000
vt 0.571021 0.502500
vt 0.568521 0.502500
vt 0.571021 0.505000
vt 0.568521 0.505000
vt 0.566021 0.500000
vt 0.566021 0.502500
vt 0.573521 0.500000
vt 0.573521 0.502500
vt 0.568521 0.495000
vt 0.571021 0.495000
vt 0.571021 0.497500
vt 0.568521 0.497500
vt 0.568521 0.500000
vt 0.571021 0.500000
vt 0.571021 0.502500
vt 0.568521 0.502500
vt 0.571021 0.505000
vt 0.568521 0.505000
vt 0.566021 0.500000
vt 0.566021 0.502500
vt 0.573521 0.500000
vt 0.573521 0.502500
vt 0.568521 0.495000
vt 0.571021 0.495000
vt 0.571021 0.497500
vt 0.568521 0.497500
vt 0.568521 0.500000
vt 0.571021 0.500000
vt 0.571021 0.502500
vt 0.568521 0.502500
vt 0.571021 0.505000
vt 0.568521 0.505000
vt 0.566021 0.500000
vt 0.566021 0.502500
vt 0.573521 0.500000
vt 0.573521 0.502500
vt 0.568521 0.495000
vt 0.571021 0.495000
vt 0.571021 0.497500
vt 0.568521 0.497500
vt 0.568521 0.500000
vt 0.571021 0.500000
vt 0.571021 0.502500
vt 0.568521 0.502500
vt 0.571021 0.505000
vt 0.568521 0.505000
vt 0.566021 0.500000
vt 0.566021 0.502500
vt 0.573521 0.500000
vt 0.573521 0.502500
vt 0.558195 0.501265
vt 0.555664 0.501265
vt 0.555664 0.498735
vt 0.558195 0.498735
vt 0.008850 0.498735
vt 0.008850 0.501265
vt 0.006319 0.501265
vt 0.006319 0.498735
vt 0.556186 0.498735
vt 0.556186 0.501265
vt 0.553655 0.501265
vt 0.553655 0.498735
vt 0.556186 0.498735
vt 0.556186 0.501265
vt 0.553655 0.501265
vt 0.646541 0.500043
vt 0.646627 0.500043
vt 0.646627 0.500043
vt 0.646541 0.500043
vt 0.648233 0.500039
vt 0.648233 0.500039
vt 0.648233 0.500039
vt 0.648233 0.500039
vt 0.558195 0.501265
vt 0.555664 0.501265
vt 0.555664 0.498735
vt 0.649135 0.501265
vt 0.646605 0.501265
vt 0.646605 0.498735
vt 0.649135 0.498735
vt 0.649135 0.501265
vt 0.646605 0.501265
vt 0.646605 0.498735
vt 0.649135 0.498735
vt 0.650942 0.499961
vt 0.650942 0.500039
vt 0.558359 0.499987
vt 0.552866 0.499987
vt 0.558339 0.499987
vt 0.558314 0.499987
vt 0.558359 0.500013
vt 0.558314 0.500013
vt 0.558339 0.500013
vt 0.558339 0.499987
vt 0.558334 0.499987
vt 0.558334 0.500013
vt 0.558339 0.500013
vt 0.552866 0.500013
vt 0.651020 0.500039
vt 0.651020 0.499961
vt 0.651020 0.499961
vt 0.651020 0.500039
vt 0.648155 0.500039
vt 0.648155 0.500039
vt 0.648171 0.500039
vt 0.650942 0.499961
vt 0.650942 0.500039
vt 0.646627 0.500043
vt 0.646541 0.500043
vt 0.648155 0.500039
vt 0.648155 0.500039
vt 0.568521 0.495000
vt 0.571021 0.495000
vt 0.571021 0.497500
vt 0.568521 0.497500
vt 0.568521 0.500000
vt 0.571021 0.500000
vt 0.571021 0.502500
vt 0.568521 0.502500
vt 0.571021 0.505000
vt 0.568521 0.505000
vt 0.566021 0.500000
vt 0.566021 0.502500
vt 0.573521 0.500000
vt 0.573521 0.502500
vt 0.568521 0.495000
vt 0.571021 0.495000
vt 0.571021 0.497500
vt 0.568521 0.497500
vt 0.568521 0.500000
vt 0.571021 0.500000
vt 0.571021 0.502500
vt 0.568521 0.502500
vt 0.571021 0.505000
vt 0.568521 0.505000
vt 0.566021 0.500000
vt 0.566021 0.502500
vt 0.573521 0.500000
vt 0.573521 0.502500
vt 0.568521 0.495000
vt 0.571021 0.495000
vt 0.571021 0.497500
vt 0.568521 0.497500
vt 0.568521 0.500000
vt 0.571021 0.500000
vt 0.571021 0.502500
vt 0.568521 0.502500
vt 0.571021 0.505000
vt 0.568521 0.505000
vt 0.566021 0.500000
vt 0.566021 0.502500
vt 0.573521 0.500000
vt 0.573521 0.502500
vt 0.568521 0.495000
vt 0.571021 0.495000
vt 0.571021 0.497500
vt 0.568521 0.497500
vt 0.568521 0.500000
vt 0.571021 0.500000
vt 0.571021 0.502500
vt 0.568521 0.502500
vt 0.571021 0.505000
vt 0.568521 0.505000
vt 0.566021 0.500000
vt 0.566021 0.502500
vt 0.573521 0.500000
vt 0.573521 0.502500
vt 0.568521 0.495000
vt 0.571021 0.495000
vt 0.571021 0.497500
vt 0.568521 0.497500
vt 0.568521 0.500000
vt 0.571021 0.500000
vt 0.571021 0.502500
vt 0.568521 0.502500
vt 0.571021 0.505000
vt 0.568521 0.505000
vt 0.566021 0.500000
vt 0.566021 0.502500
vt 0.573521 0.500000
vt 0.573521 0.502500
vt 0.568521 0.495000
vt 0.571021 0.495000
vt 0.571021 0.497500
vt 0.568521 0.497500
vt 0.568521 0.500000
vt 0.571021 0.500000
vt 0.571021 0.502500
vt 0.568521 0.502500
vt 0.571021 0.505000
vt 0.568521 0.505000
vt 0.566021 0.500000
vt 0.566021 0.502500
vt 0.573521 0.500000
vt 0.573521 0.502500
vn -1.0000 0.0000 0.0000
vn 1.0000 0.0000 0.0000
vn 0.0000 0.0000 1.0000
vn 0.0000 -1.0000 0.0000
vn 0.0000 1.0000 0.0000
vn 0.0000 0.0000 -1.0000
vn -0.0019 0.0000 -1.0000
vn 0.0019 0.0000 1.0000
vn 0.0020 0.0027 1.0000
vn 0.0002 0.9971 -0.0764
vn 0.9984 -0.0572 0.0015
vn -0.0019 -0.0029 -1.0000
vn 0.0008 0.0637 0.9980
vn -0.0001 0.9999 0.0146
vn 0.9996 0.0173 -0.0204
vn 1.0000 -0.0021 -0.0005
vn -1.0000 0.0022 0.0000
vn -0.9960 0.0634 0.0630
vn -0.9984 0.0559 -0.0004
vn 0.9992 0.0174 0.0361
vn -0.0019 -0.0750 -0.9972
vn -0.9984 0.0558 -0.0013
vn -1.0000 0.0000 -0.0001
usemtl Palette
s off
f 1/1/1 2/2/1 4/3/1 3/4/1
f 7/5/2 8/6/2 6/7/2 5/8/2
f 5/8/3 6/7/3 2/9/3 1/10/3
f 3/11/4 7/5/4 5/8/4 1/12/4
f 8/6/5 4/13/5 2/14/5 6/7/5
f 9/15/1 10/16/1 12/17/1 11/18/1
f 15/19/2 16/20/2 14/21/2 13/22/2
f 13/22/3 14/21/3 10/23/3 9/24/3
f 11/25/4 15/19/4 13/22/4 9/26/4
f 16/20/5 12/27/5 10/28/5 14/21/5
f 17/29/1 18/30/1 20/31/1 19/32/1
f 23/33/2 24/34/2 22/35/2 21/36/2
f 21/36/3 22/35/3 18/37/3 17/38/3
f 19/39/4 23/33/4 21/36/4 17/40/4
f 24/34/5 20/41/5 18/42/5 22/35/5
f 25/43/1 26/44/1 28/45/1 27/46/1
f 31/47/2 32/48/2 30/49/2 29/50/2
f 29/50/3 30/49/3 26/51/3 25/52/3
f 27/53/4 31/47/4 29/50/4 25/54/4
f 32/48/5 28/55/5 26/56/5 30/49/5
f 33/57/1 34/58/1 36/59/1 35/60/1
f 39/61/2 40/62/2 38/63/2 37/64/2
f 37/64/3 38/63/3 34/65/3 33/66/3
f 35/67/4 39/61/4 37/64/4 33/68/4
f 40/62/5 36/69/5 34/70/5 38/63/5
f 41/71/1 42/72/1 44/73/1 43/74/1
f 47/75/2 48/76/2 46/77/2 45/78/2
f 45/78/3 46/77/3 42/79/3 41/80/3
f 43/81/4 47/75/4 45/78/4 41/82/4
f 48/76/5 44/83/5 42/84/5 46/77/5
f 49/85/1 50/86/1 52/87/1 51/88/1
f 55/89/2 56/90/2 54/91/2 53/92/2
f 53/92/3 54/91/3 50/93/3 49/94/3
f 51/95/4 55/89/4 53/92/4 49/96/4
f 56/90/5 52/97/5 50/98/5 54/91/5
f 57/99/1 58/100/1 60/101/1 59/102/1
f 63/103/2 64/104/2 62/105/2 61/106/2
f 61/106/3 62/105/3 58/107/3 57/108/3
f 59/109/4 63/103/4 61/106/4 57/110/4
f 64/104/5 60/111/5 58/112/5 62/105/5
f 65/113/1 66/114/1 68/115/1 67/116/1
f 71/117/2 72/118/2 70/119/2 69/120/2
f 69/120/3 70/119/3 66/121/3 65/122/3
f 67/123/4 71/117/4 69/120/4 65/124/4
f 72/118/5 68/125/5 66/126/5 70/119/5
f 73/127/1 74/128/1 76/129/1 75/130/1
f 79/131/2 80/132/2 78/133/2 77/134/2
f 77/134/3 78/133/3 74/135/3 73/136/3
f 75/137/4 79/131/4 77/134/4 73/138/4
f 80/132/5 76/139/5 74/140/5 78/133/5
f 35/67/6 36/69/6 40/62/6 39/61/6
f 11/25/6 12/27/6 16/20/6 15/19/6
f 19/39/6 20/41/6 24/34/6 23/33/6
f 27/53/6 28/55/6 32/48/6 31/47/6
f 75/137/6 76/139/6 80/132/6 79/131/6
f 67/123/6 68/125/6 72/118/6 71/117/6
f 3/11/6 4/13/6 8/6/6 7/5/6
f 51/95/6 52/97/6 56/90/6 55/89/6
f 43/81/6 44/83/6 48/76/6 47/75/6
f 59/109/6 60/111/6 64/104/6 63/103/6
f 81/141/7 88/142/7 87/143/7 82/144/7
f 87/145/5 88/146/5 86/147/5 85/148/5
f 85/149/8 86/150/8 84/151/8 83/152/8
f 83/152/9 84/153/9 92/154/9 95/155/9
f 91/156/10 96/157/10 104/158/10 103/159/10
f 96/160/11 90/161/11 102/162/11 104/163/11
f 96/164/12 91/165/12 81/166/12 82/144/12
f 93/167/13 97/168/13 98/169/13 94/170/13
f 94/171/14 98/172/14 95/173/14 92/174/14
f 90/161/15 96/160/15 95/175/15 100/176/15
f 82/177/2 87/178/2 85/179/2 83/180/2
f 96/181/16 82/177/16 83/180/16 95/182/16
f 92/183/17 84/184/17 81/185/17 91/186/17
f 81/185/1 84/184/1 86/187/1 88/188/1
f 93/189/18 94/190/18 92/191/18 99/192/18
f 91/193/19 89/194/19 99/192/19 92/195/19
f 98/196/20 97/197/20 100/176/20 95/175/20
f 102/198/21 101/199/21 103/159/21 104/158/21
f 89/194/22 91/193/22 103/200/22 101/201/22
f 105/202/23 106/203/23 108/204/23 107/205/23
f 111/206/2 112/207/2 110/208/2 109/209/2
f 109/209/3 110/208/3 106/210/3 105/211/3
f 107/212/4 111/206/4 109/209/4 105/213/4
f 112/207/5 108/214/5 106/215/5 110/208/5
f 107/212/6 108/214/6 112/207/6 111/206/6
f 113/216/1 114/217/1 116/218/1 115/219/1
f 119/220/2 120/221/2 118/222/2 117/223/2
f 117/223/3 118/222/3 114/224/3 113/225/3
f 115/226/4 119/220/4 117/223/4 113/227/4
f 120/221/5 116/228/5 114/229/5 118/222/5
f 115/226/6 116/228/6 120/221/6 119/220/6
f 121/230/23 122/231/23 124/232/23 123/233/23
f 127/234/2 128/235/2 126/236/2 125/237/2
f 125/237/3 126/236/3 122/238/3 121/239/3
f 123/240/4 127/234/4 125/237/4 121/241/4
f 128/235/5 124/242/5 122/243/5 126/236/5
f 123/240/6 124/242/6 128/235/6 127/234/6
f 129/244/1 130/245/1 132/246/1 131/247/1
f 135/248/2 136/249/2 134/250/2 133/251/2
f 133/251/3 134/250/3 130/252/3 129/253/3
f 131/254/4 135/248/4 133/251/4 129/255/4
f 136/249/5 132/256/5 130/257/5 134/250/5
f 131/254/6 132/256/6 136/249/6 135/248/6
f 137/258/23 138/259/23 140/260/23 139/261/23
f 143/262/2 144/263/2 142/264/2 141/265/2
f 141/265/3 142/264/3 138/266/3 137/267/3
f 139/268/4 143/262/4 141/265/4 137/269/4
f 144/263/5 140/270/5 138/271/5 142/264/5
f 139/268/6 140/270/6 144/263/6 143/262/6
f 145/272/23 146/273/23 148/274/23 147/275/23
f 151/276/2 152/277/2 150/278/2 149/279/2
f 149/279/3 150/278/3 146/280/3 145/281/3
f 147/282/4 151/276/4 149/279/4 145/283/4
f 152/277/5 148/284/5 146/285/5 150/278/5
f 147/282/6 148/284/6 152/277/6 151/276/6
