# Blender v2.91.0 OBJ File: 'Map.blend'
# www.blender.org
mtllib Door.mtl
o SlidingDoor_Cube.062
v -1.079468 0.011264 0.069942
v -1.079468 4.032494 0.069942
v -1.079468 0.011264 -0.078526
v -1.079468 4.032494 -0.078526
v -1.079468 0.163997 0.069942
v 1.110619 4.032494 -0.078526
v 1.110619 3.879760 0.069942
v -1.079468 3.879760 0.069942
v -1.079468 3.879760 -0.078526
v 1.110619 3.879760 -0.078526
v 1.110619 0.011264 0.069942
v -1.079468 0.163997 -0.078526
v -0.923386 3.879760 0.069942
v 1.110619 0.163997 0.069942
v 1.110619 0.011264 -0.078526
v 0.954567 4.032494 -0.078526
v 0.954567 3.879760 0.069942
v 1.110619 4.032494 0.069942
v 1.110619 0.163997 -0.078526
v -0.923386 4.032494 -0.078526
v -0.923386 4.032494 0.069942
v 0.954567 4.032494 0.069942
v -0.923386 3.879760 -0.078526
v 0.954567 3.879760 -0.078526
v -0.923386 0.011264 0.069942
v 0.954567 0.011264 0.069942
v 0.954567 0.163997 0.069942
v -0.923386 0.163997 0.069942
v 0.954567 0.163997 -0.078526
v -0.923386 0.163997 -0.078526
v -0.923386 0.011264 -0.078526
v 0.954567 0.011264 -0.078526
vt 0.602763 0.495000
vt 0.603263 0.495000
vt 0.603263 0.497500
vt 0.602763 0.497500
vt 0.602763 0.504167
vt 0.603263 0.504167
vt 0.603263 0.505000
vt 0.602763 0.505000
vt 0.603263 0.499167
vt 0.603263 0.500000
vt 0.602763 0.500000
vt 0.602763 0.499167
vt 0.604097 0.502500
vt 0.603263 0.502500
vt 0.604097 0.500000
vt 0.601263 0.504167
vt 0.601263 0.505000
vt 0.600763 0.505000
vt 0.600763 0.504167
vt 0.599930 0.500000
vt 0.600763 0.500000
vt 0.600763 0.502500
vt 0.599930 0.502500
vt 0.601263 0.500000
vt 0.601263 0.502500
vt 0.600763 0.495000
vt 0.601263 0.495000
vt 0.601263 0.497500
vt 0.600763 0.497500
vt 0.602763 0.502500
vt 0.601263 0.499167
vt 0.600763 0.499167
vt 0.602763 0.498333
vt 0.602763 0.497500
vt 0.601263 0.497500
vt 0.601263 0.498333
vt 0.602763 0.500000
vt 0.605763 0.502500
vt 0.604930 0.502500
vt 0.604930 0.500000
vt 0.605763 0.500000
vt 0.603263 0.498333
vt 0.603263 0.503333
vt 0.602763 0.503333
vt 0.601263 0.500000
vt 0.600763 0.498333
vt 0.598263 0.500000
vt 0.599097 0.500000
vt 0.599097 0.502500
vt 0.598263 0.502500
vt 0.601263 0.503333
vt 0.600763 0.503333
vn -1.0000 0.0000 0.0000
vn 0.0000 0.0000 1.0000
vn 0.0000 0.0000 -1.0000
vn 0.0000 1.0000 0.0000
vn 0.0000 -1.0000 0.0000
vn 1.0000 0.0000 0.0000
usemtl Palette
s off
f 8/1/1 2/2/1 4/3/1 9/4/1
f 13/5/2 21/6/2 2/7/2 8/8/2
f 16/9/3 6/10/3 10/11/3 24/12/3
f 22/13/4 18/14/4 6/10/4 16/15/4
f 28/16/2 5/17/2 1/18/2 25/19/2
f 32/20/5 15/21/5 11/22/5 26/23/5
f 15/21/6 19/24/6 14/25/6 11/22/6
f 1/26/1 5/27/1 12/28/1 3/29/1
f 10/11/6 6/10/6 18/14/6 7/30/6
f 29/31/3 19/24/3 15/21/3 32/32/3
f 13/5/2 8/8/2 5/17/2 28/16/2
f 23/33/6 13/34/6 28/35/6 30/36/6
f 9/4/3 23/33/3 30/36/3 12/28/3
f 24/12/5 17/37/5 13/34/5 23/33/5
f 2/38/4 21/39/4 20/40/4 4/41/4
f 21/39/4 22/13/4 16/15/4 20/40/4
f 4/3/3 20/42/3 23/33/3 9/4/3
f 20/42/3 16/9/3 24/12/3 23/33/3
f 7/30/2 18/14/2 22/43/2 17/44/2
f 17/44/2 22/43/2 21/6/2 13/5/2
f 8/1/1 9/4/1 12/28/1 5/27/1
f 28/35/4 27/45/4 29/31/4 30/36/4
f 12/28/3 30/36/3 31/46/3 3/29/3
f 30/36/3 29/31/3 32/32/3 31/46/3
f 3/47/5 31/48/5 25/49/5 1/50/5
f 31/48/5 32/20/5 26/23/5 25/49/5
f 14/25/2 27/51/2 26/52/2 11/22/2
f 27/51/2 28/16/2 25/19/2 26/52/2
f 19/24/3 29/31/3 24/12/3 10/11/3
f 29/31/1 27/45/1 17/37/1 24/12/1
f 27/51/2 14/25/2 7/30/2 17/44/2
f 14/25/6 19/24/6 10/11/6 7/30/6
