# Blender v2.91.0 OBJ File: 'Map.blend'
# www.blender.org
mtllib ElectricDoor.mtl
o ElectricDoor_Cube.118
v 6.190321 3.538366 0.379642
v 6.190321 3.855676 0.379642
v 6.190321 3.538366 -0.519833
v 6.190321 3.855676 -0.519833
v 7.301344 3.538366 0.379642
v 7.301344 3.855676 0.379642
v 7.301344 3.538366 -0.519833
v 7.301344 3.855676 -0.519833
v -6.913255 0.832003 0.408817
v -6.913255 1.149312 0.408817
v -6.913255 0.832003 -0.490665
v -6.913255 1.149312 -0.490665
v -6.073259 0.832003 0.408810
v -6.073259 1.149312 0.408810
v -6.073259 0.832003 -0.490665
v -6.073259 1.149312 -0.490665
v -7.339769 -0.386602 0.408825
v -7.339769 -0.069292 0.408825
v -7.339769 -0.386602 -0.490673
v -7.339769 -0.069292 -0.490673
v -6.275621 -0.386602 0.408817
v -6.275621 -0.069292 0.408817
v -6.275621 -0.386602 -0.490658
v -6.275621 -0.069292 -0.490658
v -5.839708 -1.480028 0.408810
v -5.839708 -1.162719 0.408810
v -5.839677 -1.480028 -0.490665
v -5.839677 -1.162719 -0.490665
v -4.519701 -1.480028 0.408825
v -4.519701 -1.162719 0.408825
v -4.519701 -1.480028 -0.490650
v -4.519701 -1.162719 -0.490650
v -6.204332 2.516312 0.408810
v -6.204332 2.833622 0.408810
v -6.204362 2.516312 -0.490665
v -6.204362 2.833622 -0.490665
v -4.884355 2.516312 0.408825
v -4.884355 2.833622 0.408825
v -4.884355 2.516312 -0.490650
v -4.884355 2.833622 -0.490650
v 5.622084 0.832003 0.391758
v 5.622084 1.149312 0.391758
v 5.622084 0.832003 -0.507725
v 5.622084 1.149312 -0.507725
v 6.462080 0.832003 0.391750
v 6.462080 1.149312 0.391750
v 6.462080 0.832003 -0.507725
v 6.462080 1.149312 -0.507725
v 6.172041 0.214746 0.391758
v 6.172041 0.532055 0.391758
v 6.172041 0.214746 -0.507717
v 6.172041 0.532055 -0.507717
v 7.492049 0.214746 0.391758
v 7.492049 0.532055 0.391758
v 7.492018 0.214746 -0.507717
v 7.492018 0.532055 -0.507717
v 4.692214 -1.480028 0.391766
v 4.692214 -1.162719 0.391766
v 4.692214 -1.480028 -0.507710
v 4.692214 -1.162719 -0.507710
v 6.012221 -1.480028 0.391766
v 6.012221 -1.162719 0.391766
v 6.012221 -1.480028 -0.507710
v 6.012221 -1.162719 -0.507710
v 4.534285 2.516312 0.391750
v 4.534285 2.833622 0.391750
v 4.534255 2.516312 -0.507725
v 4.534255 2.833622 -0.507725
v 5.854262 2.516312 0.391750
v 5.854262 2.833622 0.391750
v 5.854262 2.516312 -0.507725
v 5.854262 2.833622 -0.507725
v -2.449510 3.649057 0.408810
v -2.449510 3.966367 0.408810
v -2.449480 3.649057 -0.490650
v -2.449480 3.966367 -0.490650
v -1.789507 3.649057 0.408817
v -1.789507 3.966367 0.408817
v -1.789507 3.649057 -0.490658
v -1.789507 3.966367 -0.490658
v -7.760026 3.166627 -0.408512
v -4.040025 3.153392 -0.418499
v 4.050368 3.140157 -0.428516
v 7.771407 3.126922 -0.438511
v 7.771407 3.130860 0.322376
v 4.050337 3.144095 0.332386
v -4.040056 3.157330 0.342381
v -7.759996 3.170565 0.352383
v 7.771407 4.070371 0.322376
v 4.050337 4.070372 0.332386
v -4.040056 4.070372 0.342381
v -7.759996 4.070371 0.352383
v 7.771407 4.070371 -0.438511
v 4.050337 4.070372 -0.428509
v -4.040025 4.070372 -0.418499
v -7.760026 4.070371 -0.408512
v -7.782091 -2.077683 -0.379116
v 3.927790 -2.075558 -0.570300
v 7.749342 -2.078265 -0.409122
v -4.050249 -1.889509 0.357075
v -4.050249 -1.893446 -0.403820
v -7.771043 -1.880211 -0.393803
v -7.771043 -1.875528 0.367252
v -3.918810 -2.077443 0.493420
v -7.774431 -2.064207 0.503422
v -3.918840 -2.100514 -0.389103
v -3.908617 -1.898468 0.478725
v -3.908617 -1.903041 -0.403797
v -7.763414 -1.885233 0.488712
v 7.761122 -1.881892 0.334454
v 7.760390 -1.885649 -0.423809
v 4.040144 -1.872414 -0.413815
v 4.040144 -1.868475 0.347088
v 7.759291 -2.098932 0.489544
v 3.922835 -2.083763 0.496990
v 3.922835 -2.067805 -0.408176
v 7.770949 -1.876060 0.478596
v 3.933638 -1.865404 -0.413737
v 3.933638 -1.860891 0.486050
v -7.782060 -2.072253 0.382130
v 7.779616 -2.091949 0.342762
v -4.064317 1.886804 0.169750
v -4.064317 2.327509 0.169750
v -4.064317 1.886804 -0.270947
v -4.064317 2.327509 -0.270947
v 4.072340 1.886804 0.169758
v 4.072340 2.327509 0.169758
v 4.072340 1.886804 -0.270939
v 4.072340 2.327509 -0.270939
v 3.916426 1.886804 -0.270947
v -3.908434 1.886804 -0.270954
v -3.908434 2.327509 -0.270954
v 3.916426 2.327509 -0.270947
v -3.908434 1.886804 0.169750
v 3.916426 1.886804 0.169758
v 3.916426 2.327509 0.169758
v -3.908434 2.327509 0.169750
v -4.064317 -2.095905 -0.270947
v -4.064317 -2.095905 0.169750
v -3.908434 -2.095905 -0.270954
v 4.072340 -2.085569 0.169758
v 4.072340 -2.085569 -0.270939
v 3.916426 -2.085569 0.169758
v 3.916426 -2.085569 -0.270947
v -3.908434 -2.095905 0.169750
v -3.908434 -1.890037 -0.270954
v -4.064317 -1.890037 -0.270947
v -3.908434 -1.890037 0.169750
v -4.064317 -1.890037 0.169750
v 3.916426 -1.890037 -0.270947
v 3.916426 -1.890037 0.169758
v 4.072340 -1.890037 -0.270939
v 4.072340 -1.890037 0.169758
v 2.351485 1.886804 -0.270947
v 2.200941 1.886805 -0.270954
v -2.192919 1.886805 -0.270954
v -2.343431 1.886804 -0.270939
v -2.343431 2.327509 -0.270939
v -2.192919 2.327510 -0.270954
v 2.200941 2.327510 -0.270954
v 2.351485 2.327509 -0.270947
v -2.343462 1.886804 0.169765
v -2.192919 1.886805 0.169758
v 2.200911 1.886805 0.169758
v 2.351454 1.886804 0.169758
v 2.351454 2.327509 0.169758
v 2.200911 2.327510 0.169758
v -2.192919 2.327510 0.169758
v -2.343462 2.327509 0.169765
v 2.351485 -2.085569 -0.270947
v 2.200941 -2.085570 -0.270954
v -2.192919 -2.085570 -0.270954
v -2.343431 -2.085569 -0.270939
v -2.343431 -1.890037 -0.270939
v -2.192919 -1.890037 -0.270954
v 2.200941 -1.890037 -0.270954
v 2.351485 -1.890037 -0.270947
v -2.343462 -1.890037 0.169765
v -2.192919 -1.890037 0.169758
v 2.200911 -1.890037 0.169758
v 2.351454 -1.890037 0.169758
v -2.343462 -2.095905 0.169765
v -2.192919 -2.085570 0.169758
v 2.200911 -2.085570 0.169758
v 2.351454 -2.085569 0.169758
v -4.064317 3.210907 0.169750
v -4.064317 3.210907 -0.270947
v 3.916426 3.210907 -0.270947
v 4.072340 3.210907 -0.270939
v 4.072340 3.210907 0.169758
v -3.908434 3.210907 0.169750
v -3.908434 3.210907 -0.270954
v 3.916426 3.210907 0.169758
v -3.908434 2.991978 -0.270954
v -3.908434 2.991978 0.169750
v -4.064317 2.991978 0.169750
v -4.064317 2.991978 -0.270947
v 4.072340 2.991978 -0.270939
v 4.072340 2.991978 0.169758
v 3.916426 2.991978 -0.270947
v 3.916426 2.991978 0.169758
v 2.351454 3.210907 0.169758
v 2.205031 3.210907 0.169750
v -2.197008 3.210907 0.169765
v -2.343462 3.210907 0.169765
v -2.343462 2.991978 0.169765
v -2.197008 2.991978 0.169765
v 2.205031 2.991978 0.169750
v 2.351454 2.991978 0.169758
v -2.343431 2.991978 -0.270939
v -2.197008 2.991978 -0.270947
v 2.205031 2.991978 -0.270939
v 2.351485 2.991978 -0.270947
v -2.343431 3.210907 -0.270939
v -2.197008 3.210907 -0.270947
v 2.205031 3.210907 -0.270939
v 2.351485 3.210907 -0.270947
v 0.003676 2.041208 0.114552
v 0.184065 2.221624 0.114536
v 0.175246 2.165873 0.114536
v 0.149611 2.115578 0.114544
v 0.109694 2.075664 0.114536
v 0.059401 2.050038 0.114552
v 0.170332 2.221624 0.183582
v 0.162184 2.165873 0.180210
v 0.138502 2.115578 0.170391
v 0.101637 2.075664 0.155132
v 0.055159 2.050038 0.135876
v 0.131239 2.221624 0.242115
v 0.124983 2.165873 0.235882
v 0.106856 2.115578 0.217762
v 0.078657 2.075664 0.189526
v 0.043074 2.050038 0.153957
v 0.072707 2.221624 0.281231
v 0.069319 2.165873 0.273075
v 0.059523 2.115578 0.249393
v 0.044264 2.075664 0.212528
v 0.024977 2.050038 0.166042
v 0.003645 2.221624 0.294956
v 0.003645 2.165873 0.286121
v 0.003645 2.115578 0.260502
v 0.003645 2.075664 0.220585
v 0.003645 2.050038 0.170292
v -0.065385 2.221624 0.281223
v -0.061998 2.165873 0.273067
v -0.052202 2.115578 0.249401
v -0.036913 2.075664 0.212505
v -0.017687 2.050038 0.166050
v -0.123918 2.221624 0.242115
v -0.117662 2.165873 0.235874
v -0.099565 2.115578 0.217754
v -0.071336 2.075664 0.189533
v -0.035753 2.050038 0.153973
v -0.163011 2.221624 0.183590
v -0.154863 2.165873 0.180202
v -0.131212 2.115578 0.170406
v -0.094316 2.075664 0.155125
v -0.047838 2.050038 0.135876
v -0.176744 2.221624 0.114552
v -0.167955 2.165873 0.114536
v -0.142320 2.115578 0.114544
v -0.102403 2.075664 0.114536
v -0.052080 2.050038 0.114536
v -0.115892 2.221624 0.061665
v 0.093855 2.221624 0.077183
v 0.003676 2.221624 0.114552
v -0.086534 2.221624 0.151905
v 0.123183 2.221624 0.167408
v 0.043288 2.221624 0.210209
v -0.043504 2.221624 0.236454
v 0.003676 2.221624 -0.389973
v 0.003645 2.165873 -0.381138
v 0.003645 2.075664 -0.315609
v 0.003645 2.050038 -0.265308
v 0.003645 2.041208 -0.209560
v 0.072676 2.221624 -0.376247
v 0.069319 2.165873 -0.368076
v 0.059492 2.115578 -0.344410
v 0.044234 2.075664 -0.307537
v 0.024977 2.050038 -0.261066
v 0.131239 2.221624 -0.337124
v 0.124983 2.165873 -0.330883
v 0.106886 2.115578 -0.312763
v 0.078627 2.075664 -0.284542
v 0.043074 2.050038 -0.248981
v 0.170332 2.221624 -0.278599
v 0.162184 2.165873 -0.275227
v 0.138502 2.115578 -0.265408
v 0.101637 2.075664 -0.250126
v 0.055159 2.050038 -0.230885
v 0.184065 2.221624 -0.209560
v 0.175246 2.165873 -0.209545
v 0.149611 2.115578 -0.209553
v 0.109694 2.075664 -0.209560
v 0.059401 2.050038 -0.209545
v -0.176744 2.221624 -0.209545
v -0.167925 2.165873 -0.209560
v -0.142320 2.115578 -0.209553
v -0.102403 2.075664 -0.209553
v -0.052110 2.050038 -0.209560
v -0.163042 2.221624 -0.278584
v -0.154894 2.165873 -0.275219
v -0.131181 2.115578 -0.265400
v -0.094316 2.075664 -0.250141
v -0.047838 2.050038 -0.230900
v -0.123918 2.221624 -0.337132
v -0.117662 2.165873 -0.330891
v -0.099565 2.115578 -0.312763
v -0.071336 2.075664 -0.284542
v -0.035753 2.050038 -0.248981
v -0.065416 2.221624 -0.376240
v -0.062029 2.165873 -0.368092
v -0.052202 2.115578 -0.344402
v -0.036913 2.075664 -0.307522
v -0.017687 2.050038 -0.261066
v 0.003645 2.115578 -0.355511
v 0.050795 2.221624 -0.331463
v -0.035967 2.221624 -0.305233
v -0.115862 2.221624 -0.262417
v 0.093855 2.221624 -0.246914
v 0.003645 2.221624 -0.209560
v -0.086534 2.221624 -0.172192
v 0.123183 2.221624 -0.156689
v -7.782587 -2.090649 -0.548280
v -4.060907 -2.103885 -0.558290
v 4.029456 -2.083957 -0.568276
v 7.748847 -2.091231 -0.578286
v -7.771539 -1.893178 -0.562966
v 4.039649 -1.885380 -0.582978
v -4.050745 -1.906413 -0.572984
v 7.759894 -1.898615 -0.592973
v 3.938300 -1.874993 -0.580249
v -3.921621 -2.102200 -0.557157
v -3.911428 -1.904727 -0.571851
vt 0.568521 0.495000
vt 0.571021 0.495000
vt 0.571021 0.497500
vt 0.568521 0.497500
vt 0.568521 0.500000
vt 0.571021 0.500000
vt 0.571021 0.502500
vt 0.568521 0.502500
vt 0.571021 0.505000
vt 0.568521 0.505000
vt 0.566021 0.500000
vt 0.566021 0.502500
vt 0.573521 0.500000
vt 0.573521 0.502500
vt 0.568521 0.495000
vt 0.571021 0.495000
vt 0.571021 0.497500
vt 0.568521 0.497500
vt 0.568521 0.500000
vt 0.571021 0.500000
vt 0.571021 0.502500
vt 0.568521 0.502500
vt 0.571021 0.505000
vt 0.568521 0.505000
vt 0.566021 0.500000
vt 0.566021 0.502500
vt 0.573521 0.500000
vt 0.573521 0.502500
vt 0.568521 0.495000
vt 0.571021 0.495000
vt 0.571021 0.497500
vt 0.568521 0.497500
vt 0.568521 0.500000
vt 0.571021 0.500000
vt 0.571021 0.502500
vt 0.568521 0.502500
vt 0.571021 0.505000
vt 0.568521 0.505000
vt 0.566021 0.500000
vt 0.566021 0.502500
vt 0.573521 0.500000
vt 0.573521 0.502500
vt 0.568521 0.495000
vt 0.571021 0.495000
vt 0.571021 0.497500
vt 0.568521 0.497500
vt 0.568521 0.500000
vt 0.571021 0.500000
vt 0.571021 0.502500
vt 0.568521 0.502500
vt 0.571021 0.505000
vt 0.568521 0.505000
vt 0.566021 0.500000
vt 0.566021 0.502500
vt 0.573521 0.500000
vt 0.573521 0.502500
vt 0.568521 0.495000
vt 0.571021 0.495000
vt 0.571021 0.497500
vt 0.568521 0.497500
vt 0.568521 0.500000
vt 0.571021 0.500000
vt 0.571021 0.502500
vt 0.568521 0.502500
vt 0.571021 0.505000
vt 0.568521 0.505000
vt 0.566021 0.500000
vt 0.566021 0.502500
vt 0.573521 0.500000
vt 0.573521 0.502500
vt 0.568521 0.495000
vt 0.571021 0.495000
vt 0.571021 0.497500
vt 0.568521 0.497500
vt 0.568521 0.500000
vt 0.571021 0.500000
vt 0.571021 0.502500
vt 0.568521 0.502500
vt 0.571021 0.505000
vt 0.568521 0.505000
vt 0.566021 0.500000
vt 0.566021 0.502500
vt 0.573521 0.500000
vt 0.573521 0.502500
vt 0.568521 0.495000
vt 0.571021 0.495000
vt 0.571021 0.497500
vt 0.568521 0.497500
vt 0.568521 0.500000
vt 0.571021 0.500000
vt 0.571021 0.502500
vt 0.568521 0.502500
vt 0.571021 0.505000
vt 0.568521 0.505000
vt 0.566021 0.500000
vt 0.566021 0.502500
vt 0.573521 0.500000
vt 0.573521 0.502500
vt 0.568521 0.495000
vt 0.571021 0.495000
vt 0.571021 0.497500
vt 0.568521 0.497500
vt 0.568521 0.500000
vt 0.571021 0.500000
vt 0.571021 0.502500
vt 0.568521 0.502500
vt 0.571021 0.505000
vt 0.568521 0.505000
vt 0.566021 0.500000
vt 0.566021 0.502500
vt 0.573521 0.500000
vt 0.573521 0.502500
vt 0.568521 0.495000
vt 0.571021 0.495000
vt 0.571021 0.497500
vt 0.568521 0.497500
vt 0.568521 0.500000
vt 0.571021 0.500000
vt 0.571021 0.502500
vt 0.568521 0.502500
vt 0.571021 0.505000
vt 0.568521 0.505000
vt 0.566021 0.500000
vt 0.566021 0.502500
vt 0.573521 0.500000
vt 0.573521 0.502500
vt 0.568521 0.495000
vt 0.571021 0.495000
vt 0.571021 0.497500
vt 0.568521 0.497500
vt 0.568521 0.500000
vt 0.571021 0.500000
vt 0.571021 0.502500
vt 0.568521 0.502500
vt 0.571021 0.505000
vt 0.568521 0.505000
vt 0.566021 0.500000
vt 0.566021 0.502500
vt 0.573521 0.500000
vt 0.573521 0.502500
vt 0.555664 0.498735
vt 0.558195 0.498735
vt 0.558195 0.501265
vt 0.555664 0.501265
vt 0.555664 0.498735
vt 0.558195 0.498735
vt 0.558195 0.501265
vt 0.555664 0.501265
vt 0.555664 0.498735
vt 0.558195 0.498735
vt 0.558195 0.501265
vt 0.555664 0.501265
vt 0.006319 0.498735
vt 0.008850 0.498735
vt 0.008850 0.501265
vt 0.006319 0.501265
vt 0.006319 0.498735
vt 0.008850 0.498735
vt 0.008850 0.501265
vt 0.006319 0.501265
vt 0.006319 0.498735
vt 0.008850 0.498735
vt 0.008850 0.501265
vt 0.006319 0.501265
vt 0.553655 0.498735
vt 0.556186 0.498735
vt 0.556186 0.501265
vt 0.553655 0.501265
vt 0.553655 0.498735
vt 0.556186 0.498735
vt 0.556186 0.501265
vt 0.553655 0.501265
vt 0.553655 0.498735
vt 0.556186 0.498735
vt 0.556186 0.501265
vt 0.553655 0.501265
vt 0.646605 0.498735
vt 0.649135 0.498735
vt 0.649135 0.501265
vt 0.646605 0.501265
vt 0.551465 0.498735
vt 0.553995 0.498735
vt 0.553995 0.501265
vt 0.551465 0.501265
vt 0.646541 0.500043
vt 0.646627 0.500043
vt 0.646627 0.500043
vt 0.646541 0.500043
vt 0.648233 0.500039
vt 0.648233 0.500039
vt 0.648233 0.500039
vt 0.648233 0.500039
vt 0.555664 0.498735
vt 0.558195 0.501265
vt 0.555664 0.501265
vt 0.556186 0.498735
vt 0.556186 0.501265
vt 0.553655 0.501265
vt 0.551465 0.498735
vt 0.553995 0.498735
vt 0.553995 0.501265
vt 0.551465 0.501265
vt 0.649624 0.499957
vt 0.649709 0.499957
vt 0.649709 0.500043
vt 0.649624 0.500043
vt 0.646605 0.498735
vt 0.649135 0.498735
vt 0.649135 0.501265
vt 0.646605 0.501265
vt 0.649624 0.499957
vt 0.649709 0.499957
vt 0.646605 0.498735
vt 0.649135 0.498735
vt 0.649135 0.501265
vt 0.646605 0.501265
vt 0.555664 0.498735
vt 0.558195 0.501265
vt 0.555664 0.501265
vt 0.556186 0.498735
vt 0.556186 0.501265
vt 0.553655 0.501265
vt 0.551465 0.498735
vt 0.553995 0.498735
vt 0.553995 0.501265
vt 0.551465 0.501265
vt 0.649624 0.499957
vt 0.649709 0.499957
vt 0.649709 0.500043
vt 0.649624 0.500043
vt 0.646605 0.498735
vt 0.649135 0.498735
vt 0.649135 0.501265
vt 0.646605 0.501265
vt 0.650942 0.499961
vt 0.650942 0.500039
vt 0.646605 0.498735
vt 0.649135 0.498735
vt 0.649135 0.501265
vt 0.646605 0.501265
vt 0.558359 0.499987
vt 0.552866 0.499987
vt 0.558339 0.499987
vt 0.558314 0.499987
vt 0.558359 0.500013
vt 0.558314 0.500013
vt 0.558339 0.500013
vt 0.558339 0.499987
vt 0.558334 0.499987
vt 0.558334 0.500013
vt 0.558339 0.500013
vt 0.552866 0.500013
vt 0.651020 0.500039
vt 0.651020 0.499961
vt 0.651020 0.499961
vt 0.651020 0.500039
vt 0.648155 0.500039
vt 0.648155 0.500039
vt 0.648171 0.500039
vt 0.650942 0.499961
vt 0.650942 0.500039
vt 0.602427 0.499167
vt 0.604927 0.499167
vt 0.604927 0.500000
vt 0.602427 0.500000
vt 0.602427 0.504167
vt 0.604927 0.504167
vt 0.604927 0.505000
vt 0.602427 0.505000
vt 0.602427 0.499167
vt 0.602427 0.500000
vt 0.602427 0.500000
vt 0.602427 0.499167
vt 0.598677 0.495000
vt 0.598677 0.495000
vt 0.598677 0.495000
vt 0.598677 0.495000
vt 0.604927 0.499000
vt 0.604927 0.499000
vt 0.604927 0.499167
vt 0.604927 0.499167
vt 0.606427 0.500000
vt 0.606594 0.500000
vt 0.606594 0.502500
vt 0.606427 0.502500
vt 0.601427 0.500000
vt 0.601594 0.500000
vt 0.601594 0.502500
vt 0.601427 0.502500
vt 0.602427 0.502500
vt 0.604927 0.502500
vt 0.604927 0.503333
vt 0.602427 0.503333
vt 0.602427 0.504000
vt 0.604927 0.504000
vt 0.602427 0.497500
vt 0.604927 0.497500
vt 0.604927 0.498333
vt 0.602427 0.498333
vt 0.602427 0.499000
vt 0.604927 0.499000
vt 0.602427 0.502500
vt 0.602427 0.503333
vt 0.602427 0.503333
vt 0.602427 0.502500
vt 0.602427 0.497500
vt 0.602427 0.498333
vt 0.602427 0.498333
vt 0.602427 0.497500
vt 0.602427 0.504167
vt 0.602427 0.505000
vt 0.602427 0.505000
vt 0.602427 0.504167
vt 0.600760 0.500000
vt 0.600760 0.502500
vt 0.600760 0.502500
vt 0.600760 0.500000
vt 0.601594 0.500000
vt 0.601594 0.502500
vt 0.602427 0.499000
vt 0.602427 0.499000
vt 0.601427 0.500000
vt 0.601427 0.502500
vt 0.602427 0.503500
vt 0.602427 0.503500
vt 0.604927 0.498500
vt 0.602427 0.498500
vt 0.604927 0.498667
vt 0.602427 0.498667
vt 0.604927 0.498833
vt 0.602427 0.498833
vt 0.604927 0.503500
vt 0.602427 0.503500
vt 0.604927 0.503667
vt 0.602427 0.503667
vt 0.604927 0.503833
vt 0.602427 0.503833
vt 0.600927 0.500000
vt 0.600927 0.502500
vt 0.601094 0.500000
vt 0.601260 0.500000
vt 0.601260 0.502500
vt 0.601094 0.502500
vt 0.605761 0.500000
vt 0.605927 0.500000
vt 0.605927 0.502500
vt 0.605761 0.502500
vt 0.604927 0.503500
vt 0.604927 0.503500
vt 0.604927 0.503333
vt 0.604927 0.503333
vt 0.606094 0.500000
vt 0.606260 0.500000
vt 0.606260 0.502500
vt 0.606094 0.502500
vt 0.605927 0.502500
vt 0.605927 0.500000
vt 0.605761 0.500000
vt 0.605761 0.502500
vt 0.602427 0.504000
vt 0.602427 0.504000
vt 0.602427 0.503833
vt 0.602427 0.503833
vt 0.602427 0.503667
vt 0.602427 0.503667
vt 0.600927 0.502500
vt 0.600927 0.500000
vt 0.602427 0.498500
vt 0.602427 0.498500
vt 0.602427 0.498667
vt 0.602427 0.498667
vt 0.602427 0.498833
vt 0.602427 0.498833
vt 0.601094 0.502500
vt 0.601094 0.500000
vt 0.601260 0.500000
vt 0.601260 0.502500
vt 0.606594 0.500000
vt 0.607427 0.500000
vt 0.607427 0.502500
vt 0.606594 0.502500
vt 0.604927 0.500000
vt 0.605761 0.500000
vt 0.605761 0.502500
vt 0.604927 0.502500
vt 0.604927 0.500000
vt 0.604927 0.505000
vt 0.604927 0.504167
vt 0.604927 0.504167
vt 0.604927 0.505000
vt 0.605927 0.500000
vt 0.605927 0.502500
vt 0.604927 0.502500
vt 0.604927 0.498333
vt 0.604927 0.497500
vt 0.604927 0.497500
vt 0.604927 0.498333
vt 0.598677 0.495000
vt 0.598677 0.495000
vt 0.598677 0.495000
vt 0.598677 0.495000
vt 0.598677 0.495000
vt 0.598677 0.495000
vt 0.606594 0.500000
vt 0.606594 0.502500
vt 0.598677 0.495000
vt 0.598677 0.495000
vt 0.606427 0.502500
vt 0.606427 0.500000
vt 0.606260 0.502500
vt 0.606260 0.500000
vt 0.606094 0.502500
vt 0.606094 0.500000
vt 0.606427 0.500000
vt 0.606427 0.502500
vt 0.606260 0.502500
vt 0.606260 0.500000
vt 0.606094 0.500000
vt 0.606094 0.502500
vt 0.604927 0.504000
vt 0.604927 0.504000
vt 0.604927 0.503833
vt 0.604927 0.503833
vt 0.604927 0.503667
vt 0.604927 0.503667
vt 0.604927 0.498500
vt 0.604927 0.498500
vt 0.604927 0.498667
vt 0.604927 0.498667
vt 0.604927 0.498833
vt 0.604927 0.498833
vt 0.633403 0.498000
vt 0.633403 0.499000
vt 0.632778 0.499000
vt 0.632778 0.498000
vt 0.633403 0.497000
vt 0.632778 0.497000
vt 0.633403 0.496000
vt 0.632778 0.496000
vt 0.633403 0.500000
vt 0.632778 0.500000
vt 0.633091 0.495000
vt 0.632466 0.495000
vt 0.632153 0.496000
vt 0.632153 0.499000
vt 0.632153 0.498000
vt 0.632153 0.497000
vt 0.632153 0.500000
vt 0.631528 0.500000
vt 0.631528 0.499000
vt 0.631841 0.495000
vt 0.631528 0.496000
vt 0.631528 0.498000
vt 0.631528 0.497000
vt 0.630903 0.497000
vt 0.630903 0.496000
vt 0.630903 0.500000
vt 0.630903 0.499000
vt 0.631216 0.495000
vt 0.630903 0.498000
vt 0.630278 0.498000
vt 0.630278 0.497000
vt 0.630278 0.496000
vt 0.630278 0.500000
vt 0.630278 0.499000
vt 0.630591 0.495000
vt 0.629653 0.498000
vt 0.629653 0.497000
vt 0.629653 0.496000
vt 0.629653 0.500000
vt 0.629653 0.499000
vt 0.629966 0.495000
vt 0.629028 0.499000
vt 0.629028 0.498000
vt 0.629028 0.497000
vt 0.629028 0.496000
vt 0.629028 0.500000
vt 0.629341 0.495000
vt 0.628716 0.495000
vt 0.628403 0.496000
vt 0.628403 0.499000
vt 0.628403 0.498000
vt 0.628403 0.497000
vt 0.628403 0.500000
vt 0.632778 0.500000
vt 0.632778 0.500000
vt 0.632243 0.500000
vt 0.633314 0.500000
vt 0.631886 0.500000
vt 0.631528 0.500000
vt 0.632778 0.500000
vt 0.635903 0.496000
vt 0.635903 0.497000
vt 0.635278 0.497000
vt 0.635278 0.496000
vt 0.635903 0.499000
vt 0.635903 0.500000
vt 0.635278 0.500000
vt 0.635278 0.499000
vt 0.635591 0.495000
vt 0.635903 0.498000
vt 0.635278 0.498000
vt 0.634653 0.497000
vt 0.634653 0.496000
vt 0.634653 0.500000
vt 0.634653 0.499000
vt 0.634966 0.495000
vt 0.634653 0.498000
vt 0.634028 0.497000
vt 0.634028 0.496000
vt 0.634028 0.500000
vt 0.634028 0.499000
vt 0.634341 0.495000
vt 0.634028 0.498000
vt 0.633403 0.498000
vt 0.633403 0.497000
vt 0.633403 0.496000
vt 0.633403 0.500000
vt 0.633403 0.499000
vt 0.633716 0.495000
vt 0.638403 0.496000
vt 0.638403 0.497000
vt 0.637778 0.497000
vt 0.637778 0.496000
vt 0.638403 0.499000
vt 0.638403 0.500000
vt 0.637778 0.500000
vt 0.637778 0.499000
vt 0.638091 0.495000
vt 0.638403 0.498000
vt 0.637778 0.498000
vt 0.637153 0.497000
vt 0.637153 0.496000
vt 0.637153 0.500000
vt 0.637153 0.499000
vt 0.637466 0.495000
vt 0.637153 0.498000
vt 0.636528 0.498000
vt 0.636528 0.497000
vt 0.636528 0.496000
vt 0.636528 0.500000
vt 0.636528 0.499000
vt 0.636841 0.495000
vt 0.636216 0.495000
vt 0.635278 0.500000
vt 0.634028 0.500000
vt 0.633314 0.500000
vt 0.632778 0.500000
vt 0.635814 0.500000
vt 0.633671 0.500000
vt 0.632778 0.500000
vt 0.636528 0.500000
vt 0.632778 0.500000
vt 0.631886 0.500000
vt 0.646541 0.499957
vt 0.646627 0.499957
vt 0.646627 0.500043
vt 0.646541 0.500043
vt 0.646627 0.500043
vt 0.646541 0.500043
vt 0.648189 0.500043
vt 0.648189 0.499957
vt 0.648155 0.500039
vt 0.648155 0.500039
vt 0.646541 0.500043
vt 0.646627 0.500043
vt 0.648125 0.499957
vt 0.648125 0.500043
vn -1.0000 0.0000 0.0000
vn 1.0000 0.0000 0.0000
vn 0.0000 0.0000 1.0000
vn 0.0000 -1.0000 0.0000
vn 0.0000 1.0000 0.0000
vn 0.0000 0.0000 -1.0000
vn -0.0027 0.0000 -1.0000
vn -0.0012 0.0000 -1.0000
vn 0.0027 0.0000 1.0000
vn 0.0012 0.0000 1.0000
vn 0.0651 0.9979 -0.0051
vn -0.0016 -1.0000 0.0052
vn 0.0033 0.9971 -0.0764
vn 0.9984 -0.0572 0.0015
vn -0.0027 -0.0029 -1.0000
vn 0.0027 0.0029 1.0000
vn 1.0000 -0.0020 0.0000
vn 0.9985 -0.0541 0.0008
vn 0.0029 0.0817 0.9967
vn 0.0676 0.9977 -0.0052
vn 0.0038 0.9972 0.0742
vn 0.0031 0.0027 1.0000
vn -1.0000 0.0020 -0.0000
vn -0.9987 0.0508 0.0003
vn 0.0021 0.0489 0.9988
vn 0.9996 0.0173 -0.0204
vn 0.0037 0.9989 -0.0461
vn 1.0000 -0.0021 -0.0005
vn -1.0000 0.0022 0.0000
vn -0.9960 0.0634 0.0630
vn -0.9984 0.0559 -0.0004
vn 0.9992 0.0174 0.0361
vn -0.0001 0.0000 -1.0000
vn 0.0001 0.0000 -1.0000
vn 0.0001 0.0000 1.0000
vn -1.0000 0.0000 -0.0001
vn 1.0000 0.0000 0.0001
vn -0.0001 0.0000 1.0000
vn 1.0000 0.0062 0.0000
vn -1.0000 0.0062 -0.0000
vn 0.8773 -0.4471 0.1745
vn 0.7003 -0.7002 0.1392
vn 0.4521 -0.8874 0.0898
vn 0.9692 -0.1533 0.1928
vn 0.1564 -0.9872 0.0311
vn 0.1326 -0.9872 0.0886
vn 0.7437 -0.4471 0.4969
vn 0.5938 -0.7001 0.3967
vn 0.3832 -0.8875 0.2561
vn 0.8217 -0.1534 0.5489
vn 0.5490 -0.1535 0.8216
vn 0.0886 -0.9872 0.1327
vn 0.4970 -0.4470 0.7437
vn 0.3968 -0.7001 0.5936
vn 0.2561 -0.8875 0.3831
vn 0.0898 -0.8874 0.4521
vn 0.1926 -0.1535 0.9692
vn 0.0312 -0.9872 0.1564
vn 0.1744 -0.4470 0.8774
vn 0.1391 -0.7002 0.7003
vn -0.1393 -0.7003 0.7001
vn -0.0900 -0.8874 0.4522
vn -0.1928 -0.1535 0.9692
vn -0.0311 -0.9872 0.1564
vn -0.1744 -0.4469 0.8774
vn -0.3964 -0.7003 0.5936
vn -0.2560 -0.8874 0.3834
vn -0.5490 -0.1536 0.8216
vn -0.0886 -0.9872 0.1325
vn -0.4970 -0.4468 0.7439
vn -0.7439 -0.4467 0.4971
vn -0.5935 -0.7003 0.3966
vn -0.3833 -0.8874 0.2560
vn -0.8216 -0.1535 0.5489
vn -0.1326 -0.9872 0.0885
vn -0.1564 -0.9872 0.0311
vn -0.8774 -0.4469 0.1747
vn -0.7001 -0.7003 0.1393
vn -0.4520 -0.8875 0.0900
vn -0.9692 -0.1531 0.1930
vn 0.0899 -0.8874 -0.4521
vn 0.1928 -0.1537 -0.9691
vn 0.0311 -0.9872 -0.1564
vn 0.1744 -0.4470 -0.8774
vn 0.1392 -0.7001 -0.7003
vn 0.2562 -0.8874 -0.3833
vn 0.5489 -0.1535 -0.8216
vn 0.0885 -0.9872 -0.1326
vn 0.4969 -0.4470 -0.7439
vn 0.3966 -0.7002 -0.5936
vn 0.3833 -0.8874 -0.2562
vn 0.8216 -0.1535 -0.5490
vn 0.1326 -0.9872 -0.0885
vn 0.7438 -0.4470 -0.4969
vn 0.5936 -0.7003 -0.3965
vn 0.7003 -0.7002 -0.1392
vn 0.4521 -0.8874 -0.0898
vn 0.9692 -0.1533 -0.1928
vn 0.1564 -0.9872 -0.0311
vn 0.8773 -0.4471 -0.1745
vn -0.4521 -0.8874 -0.0902
vn -0.9693 -0.1533 -0.1924
vn -0.1563 -0.9872 -0.0313
vn -0.8773 -0.4472 -0.1745
vn -0.7002 -0.7002 -0.1396
vn -0.3833 -0.8874 -0.2561
vn -0.8215 -0.1534 -0.5492
vn -0.1326 -0.9872 -0.0886
vn -0.7437 -0.4472 -0.4969
vn -0.5938 -0.7001 -0.3965
vn -0.3965 -0.7003 -0.5937
vn -0.2561 -0.8874 -0.3834
vn -0.5492 -0.1535 -0.8215
vn -0.0887 -0.9872 -0.1325
vn -0.4970 -0.4471 -0.7437
vn -0.1394 -0.7002 -0.7002
vn -0.0901 -0.8874 -0.4522
vn -0.1926 -0.1534 -0.9692
vn -0.0311 -0.9872 -0.1564
vn -0.1744 -0.4472 -0.8773
vn -0.0029 -0.0748 -0.9972
vn -0.0029 -0.0740 -0.9973
vn -0.9982 0.0516 -0.0319
vn -0.9984 0.0558 -0.0013
vn 0.0090 -0.0747 -0.9972
vn -0.0091 -0.0612 -0.9981
vn 0.9985 -0.0528 -0.0161
vn 0.0283 0.9986 -0.0437
vn 0.0823 0.9944 -0.0658
usemtl Palette
s off
f 1/1/1 2/2/1 4/3/1 3/4/1
f 7/5/2 8/6/2 6/7/2 5/8/2
f 5/8/3 6/7/3 2/9/3 1/10/3
f 3/11/4 7/5/4 5/8/4 1/12/4
f 8/6/5 4/13/5 2/14/5 6/7/5
f 9/15/1 10/16/1 12/17/1 11/18/1
f 15/19/2 16/20/2 14/21/2 13/22/2
f 13/22/3 14/21/3 10/23/3 9/24/3
f 11/25/4 15/19/4 13/22/4 9/26/4
f 16/20/5 12/27/5 10/28/5 14/21/5
f 17/29/1 18/30/1 20/31/1 19/32/1
f 23/33/2 24/34/2 22/35/2 21/36/2
f 21/36/3 22/35/3 18/37/3 17/38/3
f 19/39/4 23/33/4 21/36/4 17/40/4
f 24/34/5 20/41/5 18/42/5 22/35/5
f 25/43/1 26/44/1 28/45/1 27/46/1
f 31/47/2 32/48/2 30/49/2 29/50/2
f 29/50/3 30/49/3 26/51/3 25/52/3
f 27/53/4 31/47/4 29/50/4 25/54/4
f 32/48/5 28/55/5 26/56/5 30/49/5
f 33/57/1 34/58/1 36/59/1 35/60/1
f 39/61/2 40/62/2 38/63/2 37/64/2
f 37/64/3 38/63/3 34/65/3 33/66/3
f 35/67/4 39/61/4 37/64/4 33/68/4
f 40/62/5 36/69/5 34/70/5 38/63/5
f 41/71/1 42/72/1 44/73/1 43/74/1
f 47/75/2 48/76/2 46/77/2 45/78/2
f 45/78/3 46/77/3 42/79/3 41/80/3
f 43/81/4 47/75/4 45/78/4 41/82/4
f 48/76/5 44/83/5 42/84/5 46/77/5
f 49/85/1 50/86/1 52/87/1 51/88/1
f 55/89/2 56/90/2 54/91/2 53/92/2
f 53/92/3 54/91/3 50/93/3 49/94/3
f 51/95/4 55/89/4 53/92/4 49/96/4
f 56/90/5 52/97/5 50/98/5 54/91/5
f 57/99/1 58/100/1 60/101/1 59/102/1
f 63/103/2 64/104/2 62/105/2 61/106/2
f 61/106/3 62/105/3 58/107/3 57/108/3
f 59/109/4 63/103/4 61/106/4 57/110/4
f 64/104/5 60/111/5 58/112/5 62/105/5
f 65/113/1 66/114/1 68/115/1 67/116/1
f 71/117/2 72/118/2 70/119/2 69/120/2
f 69/120/3 70/119/3 66/121/3 65/122/3
f 67/123/4 71/117/4 69/120/4 65/124/4
f 72/118/5 68/125/5 66/126/5 70/119/5
f 73/127/1 74/128/1 76/129/1 75/130/1
f 79/131/2 80/132/2 78/133/2 77/134/2
f 77/134/3 78/133/3 74/135/3 73/136/3
f 75/137/4 79/131/4 77/134/4 73/138/4
f 80/132/5 76/139/5 74/140/5 78/133/5
f 35/67/6 36/69/6 40/62/6 39/61/6
f 11/25/6 12/27/6 16/20/6 15/19/6
f 19/39/6 20/41/6 24/34/6 23/33/6
f 27/53/6 28/55/6 32/48/6 31/47/6
f 75/137/6 76/139/6 80/132/6 79/131/6
f 67/123/6 68/125/6 72/118/6 71/117/6
f 3/11/6 4/13/6 8/6/6 7/5/6
f 51/95/6 52/97/6 56/90/6 55/89/6
f 43/81/6 44/83/6 48/76/6 47/75/6
f 59/109/6 60/111/6 64/104/6 63/103/6
f 93/141/7 84/142/7 83/143/7 94/144/7
f 94/145/8 83/146/8 82/147/8 95/148/8
f 95/149/7 82/150/7 81/151/7 96/152/7
f 89/153/5 93/154/5 94/155/5 90/156/5
f 90/157/5 94/158/5 95/159/5 91/160/5
f 91/161/5 95/162/5 96/163/5 92/164/5
f 85/165/9 89/166/9 90/167/9 86/168/9
f 86/169/10 90/170/10 91/171/10 87/172/10
f 87/173/9 91/174/9 92/175/9 88/176/9
f 113/177/11 112/178/11 118/179/11 119/180/11
f 83/181/12 86/182/12 87/183/12 82/184/12
f 102/185/13 101/186/13 330/187/13 328/188/13
f 111/189/14 99/190/14 327/191/14 331/192/14
f 81/193/15 82/150/15 101/194/15 102/195/15
f 87/173/16 88/196/16 103/197/16 100/198/16
f 82/199/17 87/200/17 100/201/17 101/202/17
f 108/203/18 107/204/18 104/205/18 106/206/18
f 107/207/19 109/208/19 105/209/19 104/210/19
f 101/211/20 100/212/20 107/204/20 108/203/20
f 100/213/21 103/214/21 109/215/21 107/216/21
f 83/217/15 84/142/15 111/218/15 112/219/15
f 85/165/22 86/220/22 113/221/22 110/222/22
f 86/223/23 83/224/23 112/225/23 113/226/23
f 119/227/24 118/228/24 116/229/24 115/230/24
f 117/231/25 119/232/25 115/233/25 114/234/25
f 99/190/26 111/189/26 110/235/26 121/236/26
f 110/237/27 113/238/27 119/239/27 117/240/27
f 84/241/2 93/242/2 89/243/2 85/244/2
f 111/245/28 84/241/28 85/244/28 110/246/28
f 103/247/29 88/248/29 81/249/29 102/250/29
f 81/249/1 88/248/1 92/251/1 96/252/1
f 105/253/30 109/254/30 103/255/30 120/256/30
f 102/257/31 97/258/31 120/256/31 103/259/31
f 117/260/32 114/261/32 121/236/32 110/235/32
f 130/262/6 133/263/6 129/264/6 128/265/6
f 134/266/3 137/267/3 123/268/3 122/269/3
f 150/270/6 152/271/6 142/272/6 144/273/6
f 199/274/2 198/275/2 189/276/2 190/277/2
f 213/278/6 217/279/6 188/280/6 200/281/6
f 158/282/5 132/283/5 137/284/5 169/285/5
f 154/286/4 130/287/4 135/288/4 165/289/4
f 126/290/3 127/291/3 136/292/3 135/293/3
f 162/294/3 169/295/3 137/267/3 134/266/3
f 124/296/6 125/297/6 132/298/6 131/299/6
f 154/300/6 161/301/6 133/263/6 130/262/6
f 153/302/3 151/303/3 143/304/3 141/305/3
f 147/306/6 146/307/6 140/308/6 138/309/6
f 148/310/3 149/311/3 139/312/3 145/313/3
f 134/266/3 122/269/3 149/311/3 148/310/3
f 131/314/2 134/315/2 148/316/2 146/317/2
f 124/296/6 131/299/6 146/307/6 147/306/6
f 126/290/3 135/293/3 151/303/3 153/302/3
f 135/288/1 130/287/1 150/318/1 151/319/1
f 130/262/6 128/265/6 152/271/6 150/270/6
f 170/320/6 177/321/6 150/270/6 144/273/6
f 177/322/5 181/323/5 151/319/5 150/318/5
f 181/324/3 185/325/3 143/304/3 151/303/3
f 131/299/6 132/298/6 158/326/6 157/327/6
f 157/327/33 158/326/33 159/328/33 156/329/33
f 156/329/6 159/328/6 160/330/6 155/331/6
f 155/331/34 160/330/34 161/301/34 154/300/34
f 135/293/3 136/292/3 166/332/3 165/333/3
f 165/333/3 166/332/3 167/334/3 164/335/3
f 164/335/3 167/334/3 168/336/3 163/337/3
f 163/337/35 168/336/35 169/295/35 162/294/35
f 131/314/4 157/338/4 162/339/4 134/315/4
f 156/340/4 155/341/4 164/342/4 163/343/4
f 133/344/5 161/345/5 166/346/5 136/347/5
f 202/348/3 209/349/3 201/350/3 193/351/3
f 160/352/5 159/353/5 168/354/5 167/355/5
f 209/356/4 213/357/4 200/358/4 201/359/4
f 148/310/3 145/313/3 182/360/3 178/361/3
f 178/361/35 182/360/35 183/362/35 179/363/35
f 180/364/3 184/365/3 185/325/3 181/324/3
f 146/317/5 148/316/5 178/366/5 174/367/5
f 140/308/6 146/307/6 174/368/6 173/369/6
f 173/369/33 174/368/33 175/370/33 172/371/33
f 171/372/34 176/373/34 177/321/34 170/320/34
f 174/367/36 178/366/36 162/339/36 157/338/36
f 178/361/35 179/363/35 163/337/35 162/294/35
f 179/374/2 175/375/2 156/340/2 163/343/2
f 175/370/33 174/368/33 157/327/33 156/329/33
f 176/376/36 180/377/36 164/342/36 155/341/36
f 180/364/3 181/324/3 165/333/3 164/335/3
f 181/323/37 177/322/37 154/286/37 165/289/37
f 177/321/34 176/373/34 155/331/34 154/300/34
f 183/362/2 172/371/2 175/370/2 179/374/2
f 184/365/36 180/377/36 176/373/36 171/372/36
f 192/378/5 187/379/5 186/380/5 191/381/5
f 189/382/5 188/383/5 193/384/5 190/385/5
f 198/386/6 200/281/6 188/280/6 189/382/6
f 196/387/3 195/388/3 191/389/3 186/390/3
f 217/391/5 202/392/5 193/384/5 188/383/5
f 201/350/3 199/393/3 190/385/3 193/351/3
f 194/394/6 197/395/6 187/396/6 192/397/6
f 197/398/1 196/399/1 186/400/1 187/401/1
f 125/402/1 123/403/1 196/399/1 197/398/1
f 132/298/6 125/297/6 197/395/6 194/394/6
f 123/268/3 137/267/3 195/388/3 196/387/3
f 137/284/2 132/283/2 194/404/2 195/405/2
f 136/292/3 127/291/3 199/393/3 201/350/3
f 133/344/1 136/347/1 201/359/1 200/358/1
f 129/264/6 133/263/6 200/281/6 198/386/6
f 127/406/2 129/407/2 198/275/2 199/274/2
f 192/378/5 191/381/5 205/408/5 214/409/5
f 214/409/5 205/408/5 204/410/5 215/411/5
f 215/411/5 204/410/5 203/412/5 216/413/5
f 216/413/5 203/412/5 202/392/5 217/391/5
f 195/405/4 194/404/4 210/414/4 206/415/4
f 207/416/4 211/417/4 212/418/4 208/419/4
f 191/389/3 195/388/3 206/420/3 205/421/3
f 205/421/3 206/420/3 207/422/3 204/423/3
f 204/423/3 207/422/3 208/424/3 203/425/3
f 203/425/38 208/424/38 209/349/38 202/348/38
f 194/394/6 192/397/6 214/426/6 210/427/6
f 210/427/33 214/426/33 215/428/33 211/429/33
f 211/429/6 215/428/6 216/430/6 212/431/6
f 212/431/33 216/430/33 217/279/33 213/278/33
f 211/417/39 207/416/39 168/354/39 159/353/39
f 207/422/3 206/420/3 169/295/3 168/336/3
f 206/415/36 210/414/36 158/282/36 169/285/36
f 210/427/33 211/429/33 159/328/33 158/326/33
f 213/357/37 209/356/37 166/346/37 161/345/37
f 209/349/3 208/424/3 167/334/3 166/332/3
f 208/419/40 212/418/40 160/352/40 167/355/40
f 212/431/6 213/278/6 161/301/6 160/330/6
f 221/432/41 220/433/41 225/434/41 226/435/41
f 222/436/42 221/432/42 226/435/42 227/437/42
f 223/438/43 222/436/43 227/437/43 228/439/43
f 220/433/44 219/440/44 224/441/44 225/434/44
f 218/442/45 223/438/45 228/439/45
f 218/443/46 228/439/46 233/444/46
f 226/435/47 225/434/47 230/445/47 231/446/47
f 227/437/48 226/435/48 231/446/48 232/447/48
f 228/439/49 227/437/49 232/447/49 233/444/49
f 225/434/50 224/441/50 229/448/50 230/445/50
f 230/445/51 229/448/51 234/449/51 235/450/51
f 218/451/52 233/444/52 238/452/52
f 231/446/53 230/445/53 235/450/53 236/453/53
f 232/447/54 231/446/54 236/453/54 237/454/54
f 233/444/55 232/447/55 237/454/55 238/452/55
f 238/452/56 237/454/56 242/455/56 243/456/56
f 235/450/57 234/449/57 239/457/57 240/458/57
f 218/459/58 238/452/58 243/456/58
f 236/453/59 235/450/59 240/458/59 241/460/59
f 237/454/60 236/453/60 241/460/60 242/455/60
f 242/455/61 241/460/61 246/461/61 247/462/61
f 243/456/62 242/455/62 247/462/62 248/463/62
f 240/458/63 239/457/63 244/464/63 245/465/63
f 218/466/64 243/456/64 248/463/64
f 241/460/65 240/458/65 245/465/65 246/461/65
f 247/462/66 246/461/66 251/467/66 252/468/66
f 248/463/67 247/462/67 252/468/67 253/469/67
f 245/465/68 244/464/68 249/470/68 250/471/68
f 218/472/69 248/463/69 253/469/69
f 246/461/70 245/465/70 250/471/70 251/467/70
f 251/467/71 250/471/71 255/473/71 256/474/71
f 252/468/72 251/467/72 256/474/72 257/475/72
f 253/469/73 252/468/73 257/475/73 258/476/73
f 250/471/74 249/470/74 254/477/74 255/473/74
f 218/478/75 253/469/75 258/476/75
f 218/479/76 258/476/76 263/480/76
f 256/474/77 255/473/77 260/481/77 261/482/77
f 257/475/78 256/474/78 261/482/78 262/483/78
f 258/476/79 257/475/79 262/483/79 263/480/79
f 255/473/80 254/477/80 259/484/80 260/481/80
f 268/485/5 229/448/5 224/441/5 219/440/5
f 266/486/5 269/487/5 268/485/5 265/488/5
f 269/487/5 234/449/5 229/448/5 268/485/5
f 267/489/5 270/490/5 269/487/5 266/486/5
f 270/490/5 239/457/5 234/449/5 269/487/5
f 259/484/5 254/477/5 267/489/5 264/491/5
f 254/477/5 249/470/5 270/490/5 267/489/5
f 249/470/5 244/464/5 239/457/5 270/490/5
f 274/492/81 273/493/81 279/494/81 280/495/81
f 272/496/82 271/497/82 276/498/82 277/499/82
f 275/500/83 274/492/83 280/495/83
f 316/501/84 272/496/84 277/499/84 278/502/84
f 273/493/85 316/501/85 278/502/85 279/494/85
f 280/495/86 279/494/86 284/503/86 285/504/86
f 277/499/87 276/498/87 281/505/87 282/506/87
f 275/507/88 280/495/88 285/504/88
f 278/502/89 277/499/89 282/506/89 283/508/89
f 279/494/90 278/502/90 283/508/90 284/503/90
f 285/504/91 284/503/91 289/509/91 290/510/91
f 282/506/92 281/505/92 286/511/92 287/512/92
f 275/513/93 285/504/93 290/510/93
f 283/508/94 282/506/94 287/512/94 288/514/94
f 284/503/95 283/508/95 288/514/95 289/509/95
f 289/509/96 288/514/96 293/515/96 294/516/96
f 290/510/97 289/509/97 294/516/97 295/517/97
f 287/512/98 286/511/98 291/518/98 292/519/98
f 275/520/99 290/510/99 295/517/99
f 288/514/100 287/512/100 292/519/100 293/515/100
f 300/521/101 299/522/101 304/523/101 305/524/101
f 297/525/102 296/526/102 301/527/102 302/528/102
f 275/529/103 300/521/103 305/524/103
f 298/530/104 297/525/104 302/528/104 303/531/104
f 299/522/105 298/530/105 303/531/105 304/523/105
f 305/524/106 304/523/106 309/532/106 310/533/106
f 302/528/107 301/527/107 306/534/107 307/535/107
f 275/536/108 305/524/108 310/533/108
f 303/531/109 302/528/109 307/535/109 308/537/109
f 304/523/110 303/531/110 308/537/110 309/532/110
f 309/532/111 308/537/111 313/538/111 314/539/111
f 310/533/112 309/532/112 314/539/112 315/540/112
f 307/535/113 306/534/113 311/541/113 312/542/113
f 275/543/114 310/533/114 315/540/114
f 308/537/115 307/535/115 312/542/115 313/538/115
f 314/539/116 313/538/116 316/501/116 273/493/116
f 315/540/117 314/539/117 273/493/117 274/492/117
f 312/542/118 311/541/118 271/497/118 272/496/118
f 275/544/119 315/540/119 274/492/119
f 313/538/120 312/542/120 272/496/120 316/501/120
f 271/497/5 317/545/5 281/505/5 276/498/5
f 317/546/5 320/547/5 286/511/5 281/505/5
f 320/547/5 323/548/5 291/518/5 286/511/5
f 311/541/5 318/549/5 317/545/5 271/497/5
f 318/550/5 321/551/5 320/547/5 317/546/5
f 306/534/5 319/552/5 318/549/5 311/541/5
f 319/553/5 322/554/5 321/551/5 318/550/5
f 301/527/5 296/526/5 319/552/5 306/534/5
f 329/555/121 331/556/121 327/557/121 326/558/121
f 328/188/122 330/187/122 325/559/122 324/560/122
f 98/561/123 116/229/123 118/228/123 332/562/123
f 97/258/124 102/257/124 328/563/124 324/564/124
f 112/565/13 111/566/13 331/556/13 329/555/13
f 334/567/125 333/568/125 325/559/125 330/187/125
f 326/558/126 98/561/126 332/562/126 329/555/126
f 108/203/127 106/206/127 333/568/127 334/567/127
f 101/186/128 108/203/128 334/567/128 330/187/128
f 112/565/129 329/555/129 332/562/129 118/228/129
