# Blender v2.91.0 OBJ File: 'Map.blend'
# www.blender.org
mtllib GlassDoor.mtl
o GlassDoor_Cube.098
v -0.965210 0.167271 0.017338
v -0.965210 3.962142 0.017338
v -0.965210 0.167271 -0.017651
v -0.965210 3.962142 -0.017651
v 0.992096 0.167271 0.017338
v 0.992096 3.962142 0.017338
v 0.992096 0.167271 -0.017651
v 0.992096 3.962142 -0.017651
vt 0.538125 0.621250
vt 0.540625 0.621250
vt 0.540625 0.623750
vt 0.538125 0.623750
vt 0.538125 0.626250
vt 0.540625 0.626250
vt 0.540625 0.628750
vt 0.538125 0.628750
vn 0.0000 0.0000 -1.0000
vn 0.0000 0.0000 1.0000
usemtl Palette
s off
f 3/1/1 4/2/1 8/3/1 7/4/1
f 5/5/2 6/6/2 2/7/2 1/8/2
